<svg xmlns="http://www.w3.org/2000/svg" version="1.1" xmlns:xlink="http://www.w3.org/1999/xlink" width="512" height="512" x="0" y="0" viewBox="0 0 512 512" style="enable-background:new 0 0 512 512" xml:space="preserve" class=""><g><path d="M191.271 62.422a6.987 6.987 0 0 0-6.987-6.987H90.23a6.987 6.987 0 0 0-6.987 6.987v94.053a6.987 6.987 0 0 0 6.987 6.987h94.053a6.987 6.987 0 0 0 6.987-6.987V62.422zm-13.975 87.066H97.217V69.41h80.079zm131.102 231.179a6.987 6.987 0 0 1-6.987 6.987H144.57a6.987 6.987 0 1 1 0-13.974h156.841a6.987 6.987 0 0 1 6.987 6.987zm0 41.755a6.987 6.987 0 0 1-6.987 6.987H144.57a6.987 6.987 0 1 1 0-13.974h156.841a6.987 6.987 0 0 1 6.987 6.987zm-202.923-311.77a6.99 6.99 0 0 1-.007-9.882 6.99 6.99 0 0 1 9.882-.007l15.47 15.449 28.37-28.347a6.987 6.987 0 0 1 9.882.005 6.987 6.987 0 0 1-.004 9.882l-33.307 33.279c-1.364 1.362-3.152 2.044-4.939 2.044s-3.573-.681-4.938-2.043zm399.421 129.786c0-75.222-59.35-136.841-133.682-140.495V76.737a6.981 6.981 0 0 0-1.89-4.778L303.958 2.226A6.988 6.988 0 0 0 298.86.017H57.603a6.987 6.987 0 0 0-6.987 6.987v202.238H36.088c-15.982 0-28.984 13.002-28.984 28.984 0 44.463.028 88.926.057 133.389.028 44.46.057 88.92.057 133.38a6.987 6.987 0 0 0 6.987 6.987h83.424a6.987 6.987 0 0 0 6.987-6.987v-29.324h259.611a6.987 6.987 0 0 0 6.987-6.987v-87.751c74.332-3.654 133.682-65.273 133.682-140.495zM305.397 24.195l42.708 45.56-43.962.02zM90.641 498.008H21.192c-.003-42.135-.03-84.267-.057-126.401-.028-44.46-.057-88.92-.057-133.38 0-8.276 6.733-15.01 15.009-15.01h15.01V322.7c0 10.563 3.13 16.969 9.304 19.038 1.223.41 2.479.612 3.777.612 8.308-.001 18.256-8.313 31.238-23.571.105-.117.208-.235.305-.359 5.508-6.495 11.556-14.221 18.259-23.096 2.404-3.184 4.481-5.934 5.425-7.024 5.43-6.265 14.932-6.953 21.183-1.536a15.608 15.608 0 0 1 5.334 11.029c.176 3.798-1.089 7.313-3.564 9.896l-.002.003c-17.886 18.694-29.6 32.059-29.463 46.896.15 18.739-2.872 31.085-20.452 50.566a6.987 6.987 0 0 0-1.8 4.682zm69.242-200.863c-.374-8.046-4.07-15.679-10.142-20.941-12.073-10.463-30.418-9.143-40.9 2.949-1.251 1.447-3.248 4.091-6.011 7.749-1.64 2.172-3.54 4.686-5.612 7.382v-41.841h80.079v80.078h-38.755c3.917-4.627 8.643-9.66 13.913-15.168 5.145-5.374 7.783-12.551 7.428-20.208zm-55.267 164.552v-49.203c16.783-19.157 22.443-34.109 22.252-58.025-.023-2.489.691-5.139 2.017-7.973h55.398a6.987 6.987 0 0 0 6.987-6.987v-94.053a6.987 6.987 0 0 0-6.987-6.987H90.23a6.987 6.987 0 0 0-6.987 6.987v66.078c-.596.684-1.193 1.363-1.789 2.03-8.967 10.023-13.808 13.267-15.943 14.313-.22-.996-.438-2.628-.438-5.177V216.741c0-.925-.176-1.807-.482-2.626V13.992h227.107l-1.721 62.581a6.987 6.987 0 0 0 6.985 7.179h.003l60.276-.027v16.218c-74.316 3.655-133.653 65.273-133.653 140.495s59.337 136.84 133.653 140.495v80.764zm259.611-94.565c-69.844 0-126.666-56.835-126.666-126.694s56.822-126.694 126.666-126.694c69.86 0 126.695 56.835 126.695 126.694s-56.836 126.694-126.695 126.694zm17.927-191.447-.011-.02c-3.628-6.231-10.098-9.977-17.308-10.02-7.24-.074-13.751 3.659-17.427 9.901l-49.943 84.693c-4.998 8.458-5.07 18.216-.191 26.782 4.875 8.522 13.316 13.41 23.158 13.41h87.619c9.804 0 18.221-4.862 23.087-13.33 4.879-8.452 4.882-18.165-.001-26.662zm36.874 104.443c-2.346 4.082-6.245 6.33-10.978 6.33h-87.619c-4.76 0-8.676-2.264-11.021-6.363-2.356-4.138-2.326-8.664.089-12.751l49.949-84.702c1.165-1.978 2.983-3.021 5.26-3.021h.044c2.31.014 4.146 1.075 5.311 3.071l48.966 84.727c2.36 4.107 2.362 8.617-.001 12.709zm-47.814-67.158v26.277a6.987 6.987 0 1 1-13.974 0V212.97a6.987 6.987 0 1 1 13.974 0zm0 45.921v.313a6.987 6.987 0 1 1-13.974 0v-.313a6.987 6.987 0 1 1 13.974 0z" fill="#000000" opacity="1" data-original="#000000" class=""></path></g></svg>