<svg xmlns="http://www.w3.org/2000/svg" version="1.1" xmlns:xlink="http://www.w3.org/1999/xlink" width="512" height="512" x="0" y="0" viewBox="0 0 512 512" style="enable-background:new 0 0 512 512" xml:space="preserve" class=""><g><path d="M494.685 395.874a8 8 0 0 1-5.716 9.763l-45.514 11.898a8.004 8.004 0 0 1-9.963-6.758l-5.774-46.688a8 8 0 1 1 15.879-1.963l3.151 25.477c21.173-34.777 32.287-74.383 32.287-115.635 0-92.033-57.79-175.838-143.803-208.537a8 8 0 0 1 5.686-14.956c44.836 17.045 83.163 46.885 110.838 86.292 28.314 40.318 43.28 87.761 43.28 137.2 0 44.516-12.074 87.251-35.078 124.715l24.966-6.526a8 8 0 0 1 9.761 5.718zm-97.718 48.914C357.32 477.168 307.257 495 255.999 495c-81.63 0-156.576-44.868-195.521-115.66l23.645 10.012a8 8 0 1 0 6.239-14.733l-43.319-18.344a8 8 0 0 0-10.834 5.249l-12.453 45.365a7.999 7.999 0 0 0 5.597 9.832 7.992 7.992 0 0 0 2.123.288 8.003 8.003 0 0 0 7.709-5.884l6.829-24.877C87.624 462.578 168.206 511 255.999 511c54.936 0 108.593-19.113 151.089-53.819a8.001 8.001 0 0 0-10.121-12.393zM29.188 316.805a8 8 0 0 0 6.629-9.168 225.447 225.447 0 0 1-2.851-35.668c0-122.982 100.052-223.036 223.033-223.036 1.57 0 3.147.028 4.725.062l-20.442 15.432a8 8 0 0 0 9.64 12.77l37.545-28.344a8 8 0 0 0 .871-12.007L255.277 3.378a8 8 0 1 0-11.382 11.244l18.166 18.389a236.224 236.224 0 0 0-6.062-.079c-63.848 0-123.874 24.864-169.021 70.012-45.148 45.148-70.012 105.175-70.012 169.024 0 12.745 1.027 25.6 3.054 38.208a8 8 0 0 0 9.168 6.629zm352.795-74.718c0 22.265-5.878 44.155-16.999 63.305a126.948 126.948 0 0 1-44.695 45.197c-5.029 2.997-7.798 7.87-7.798 13.721v28.825c0 10.572-6.802 19.579-16.257 22.891-.124 17.525-14.414 31.746-31.968 31.746h-17.002c-17.554 0-31.844-14.221-31.968-31.746-9.455-3.312-16.257-12.319-16.257-22.891V364.31c0-5.852-2.77-10.725-7.798-13.721a126.948 126.948 0 0 1-44.695-45.197c-11.121-19.149-16.999-41.04-16.999-63.305 0-69.596 56.621-126.217 126.217-126.217 69.598.001 126.219 56.621 126.219 126.217zM280.16 417.386h-48.789c.8 8.065 7.621 14.386 15.893 14.386h17.002c8.273 0 15.094-6.321 15.894-14.386zm16.331-24.251v-3.873H215.04v3.873c0 4.55 3.701 8.251 8.25 8.251h64.951c4.549 0 8.25-3.701 8.25-8.251zm69.492-151.048c0-60.774-49.443-110.217-110.218-110.217-60.774 0-110.217 49.443-110.217 110.217 0 38.645 20.646 74.954 53.883 94.756 9.919 5.91 15.609 15.921 15.609 27.466v8.952h81.452v-8.952c0-11.544 5.689-21.556 15.609-27.466 33.235-19.802 53.882-56.111 53.882-94.756zm40.908-97.426-26.55 15.329a8 8 0 1 0 8.001 13.856l26.55-15.329a8 8 0 1 0-8.001-13.856zM396.7 241.277a8 8 0 0 0 8 8h30.658a8 8 0 0 0 0-16H404.7a8 8 0 0 0-8 8zm18.191 82.508-26.55-15.33a8.001 8.001 0 0 0-8 13.856l26.55 15.33a7.998 7.998 0 0 0 10.929-2.928 8.002 8.002 0 0 0-2.929-10.928zM123.19 173.846a7.998 7.998 0 0 0 10.929-2.928 8 8 0 0 0-2.928-10.928l-26.551-15.329a8 8 0 0 0-8 13.856zm-54.548 67.305a8 8 0 0 0 8 8H107.3a8 8 0 0 0 0-16H76.642a8 8 0 0 0-8 8zm32.005 97.564a7.97 7.97 0 0 0 3.993-1.073l26.551-15.33a8 8 0 0 0-8-13.856l-26.551 15.33a8 8 0 0 0 4.007 14.929zm251.17-112.127a7.999 7.999 0 0 1 3.701 14.977c-6.206 3.475-10.758 15.594-15.161 27.313-6.385 16.997-13.623 36.261-30.438 41.94-3.128 1.057-6.406 1.586-9.851 1.586-7.376 0-15.517-2.439-24.576-7.337-6.667 10.223-11.142 22.323-11.543 35.143a8 8 0 1 1-15.992-.5 79.638 79.638 0 0 1 2.748-18.34c-2.442-17.866-7.184-34.13-13.516-47.423-6.966 2.608-13.286 3.915-19.018 3.915-4.904 0-9.382-.952-13.475-2.85-16.101-7.467-21.208-27.403-25.714-44.991-3.107-12.128-6.32-24.669-12.112-28.795a7.999 7.999 0 0 1 5.302-14.488c50.764 4.205 76.479 25.921 83.616 44.843 4.462 11.828 2.6 23.901-5.018 33.743 4.568 9.207 8.394 19.619 11.313 30.946a94.057 94.057 0 0 1 1.71-2.501c-5.18-10.018-5.245-21.239.041-31.662 9.146-18.037 37.067-36.855 87.983-35.519zm-122.721 33.254c-5.758-8.298-12.294-14.517-19.296-18.001a8 8 0 1 1 7.127-14.325c9.019 4.488 17.278 12.052 24.424 22.011 1.24-3.881 1.078-8.029-.533-12.299-4.424-11.729-20.783-26.079-52.659-32.209 2.563 6.355 4.418 13.596 6.323 21.033 3.8 14.833 7.729 30.172 16.946 34.447 4.312 1.999 10.235 1.772 17.668-.657zm46.871 19.788c8.401-7.999 17.812-13.988 26.941-17.353a7.998 7.998 0 0 1 10.273 4.74 8 8 0 0 1-4.74 10.273c-7.752 2.857-15.672 8.124-22.645 15.091 7.81 3.796 14.185 4.907 19.004 3.28 9.626-3.251 15.194-18.073 20.579-32.408 2.7-7.187 5.328-14.183 8.565-20.224-32.357 2.639-50.169 15.133-55.839 26.314-1.742 3.434-2.445 6.892-2.138 10.287z" fill="#000000" opacity="1" data-original="#000000" class=""></path></g></svg>