<svg xmlns="http://www.w3.org/2000/svg" version="1.1" xmlns:xlink="http://www.w3.org/1999/xlink" width="512" height="512" x="0" y="0" viewBox="0 0 24 24" style="enable-background:new 0 0 512 512" xml:space="preserve" class=""><circle r="12" cx="12" cy="12" fill="#136b8f" shape="circle" transform="matrix(0.55,0,0,0.55,5.3999999999999995,5.3999999999999995)"></circle><g transform="matrix(-0.7,-8.572527594031472e-17,8.572527594031472e-17,-0.7,20.4,20.4)"><path d="M13.707 8.293a.999.999 0 0 0-1.414 0l-3 3a.999.999 0 0 0 0 1.414l3 3a.997.997 0 0 0 1.414 0 .999.999 0 0 0 0-1.414L11.414 12l2.293-2.293a.999.999 0 0 0 0-1.414z" fill="#ffffff" opacity="1" data-original="#000000" class=""></path></g></svg>