<svg xmlns="http://www.w3.org/2000/svg" xmlns:xlink="http://www.w3.org/1999/xlink" width="225" height="66" xmlns:v="https://vecta.io/nano"><style><![CDATA[.B{fill:#929493}.C{fill:#00b9f2}.D{fill:#6a9b05}.E{fill:#ac8be6}.F{fill:#009b91}]]></style><g clip-path="url(#clip-Custom_Size_1)"><path d="M225 3.986a4 4 0 0 1-6.828 2.843 4 4 0 0 1 2.843-6.828A4 4 0 0 1 225 3.986z" class="D"/><path d="M225 23a4 4 0 0 1-6.834 2.823A4 4 0 0 1 221.015 19 4 4 0 0 1 225 23z" class="B"/><path d="M225 43a4 4 0 0 1-6.834 2.823A4 4 0 0 1 221.015 39 4 4 0 0 1 225 43z" class="C"/><path d="M225 61.99a4 4 0 1 1-3.985-3.985A4 4 0 0 1 225 61.99zM197 3.986a4 4 0 1 1-3.985-3.985A4 4 0 0 1 197 3.986z" class="B"/><path d="M197 23a4 4 0 0 1-6.834 2.823A4 4 0 0 1 193.015 19 4 4 0 0 1 197 23z" class="E"/><path d="M197 43a4 4 0 1 1-3.986-4A4 4 0 0 1 197 43zm0 18.99a4 4 0 1 1-3.985-3.985A4 4 0 0 1 197 61.99z" class="B"/><path d="M170 3.986a4 4 0 0 1-6.827 2.844A4 4 0 0 1 166.01 0 4 4 0 0 1 170 3.986z" class="F"/><path d="M170 23a4 4 0 0 1-6.834 2.823A4 4 0 0 1 166.015 19 4 4 0 0 1 170 23z" class="B"/><path d="M170 43a4 4 0 0 1-6.834 2.823A4 4 0 0 1 166.015 39 4 4 0 0 1 170 43z" class="D"/><path d="M170 61.99a4 4 0 0 1-6.828 2.842 4 4 0 0 1 2.842-6.828A4 4 0 0 1 170 61.99z" class="C"/><path d="M143 3.986a4 4 0 0 1-6.838 2.833A4 4 0 0 1 139.04 0 4 4 0 0 1 143 3.986z" class="B"/><path d="M143 23a4 4 0 0 1-6.844 2.813A4 4 0 0 1 139.043 19 4 4 0 0 1 143 23z" fill="#f80"/><path d="M143 43a4 4 0 1 1-3.985-4A4 4 0 0 1 143 43zm0 18.99a4 4 0 1 1-3.985-3.986A4 4 0 0 1 143 61.99zM116 3.986A4 4 0 1 1 112 0a4 4 0 0 1 4 3.986z" class="B"/><use xlink:href="#B" class="E"/><path d="M116 43a4 4 0 1 1-8 0 4 4 0 1 1 8 0z" class="B"/><path d="M116 61.99c0 1.9-1.342 3.536-3.206 3.908s-3.731-.625-4.459-2.38-.117-3.781 1.462-4.839 3.685-.854 5.031.488A4 4 0 0 1 116 61.99z" fill="#f80"/><path d="M89 3.986a4 4 0 0 1-7.687 1.566 4 4 0 0 1 6.495-4.4A4 4 0 0 1 89 3.986z" class="B"/><path d="M89 23a4 4 0 0 1-7.691 1.54 4 4 0 0 1 6.504-4.384A4 4 0 0 1 89 23z" class="C"/><path d="M89 43a4 4 0 1 1-8 0 4 4 0 1 1 8 0z" class="F"/><path d="M89 61.99c0 1.901-1.342 3.538-3.207 3.909s-3.732-.625-4.461-2.381-.117-3.782 1.463-4.84 3.686-.854 5.033.489A4 4 0 0 1 89 61.99zM62 3.986A4 4 0 1 1 58 0a4 4 0 0 1 4 3.986z" class="B"/><path d="M62 23a4 4 0 1 1-8 0 4 4 0 1 1 8 0z" fill="#f80"/><path d="M62 43a4 4 0 1 1-8 0 4 4 0 1 1 8 0z" class="B"/><path d="M62 61.99c0 1.9-1.342 3.536-3.206 3.908s-3.731-.625-4.459-2.38-.117-3.781 1.462-4.839 3.685-.854 5.031.488A4 4 0 0 1 62 61.99zM35 3.986A4 4 0 1 1 31 0a4 4 0 0 1 4 3.986z" class="E"/><path d="M35 23a4 4 0 1 1-8 0 4 4 0 1 1 8 0z" class="B"/><path d="M35 43a4 4 0 1 1-8 0 4 4 0 1 1 8 0z" class="C"/><path d="M35 61.99c0 1.901-1.342 3.538-3.207 3.909s-3.732-.625-4.461-2.381-.117-3.782 1.463-4.84 3.686-.854 5.033.489A4 4 0 0 1 35 61.99z" class="B"/><path d="M8 3.986a4 4 0 0 1-6.823 2.847A4 4 0 0 1 4 0a4 4 0 0 1 4 3.986z" class="F"/><path d="M8 23a4 4 0 1 1-8 0 4 4 0 1 1 8 0z" class="B"/><path d="M8 43a4 4 0 1 1-8 0 4 4 0 1 1 8 0z" fill="#f80"/><path d="M8 61.99c0 1.9-1.342 3.536-3.206 3.908s-3.731-.625-4.459-2.38-.117-3.781 1.462-4.839 3.685-.854 5.031.488A4 4 0 0 1 8 61.99z" class="D"/></g><defs ><path id="B" d="M116 23a4 4 0 1 1-8 0 4 4 0 1 1 8 0z"/></defs></svg>