<svg xmlns="http://www.w3.org/2000/svg" version="1.1" xmlns:xlink="http://www.w3.org/1999/xlink" width="512" height="512" x="0" y="0" viewBox="0 0 512 512" style="enable-background:new 0 0 512 512" xml:space="preserve" class=""><g><path d="M256 75c-99.805 0-181 81.195-181 181s81.195 181 181 181 181-81.195 181-181S355.805 75 256 75zm-15 36.027h30v30.028h-30zm0 60.051h30V241h69.922v30H241zM141.055 271h-30.028v-30h30.028zm23.043 98.117-21.215-21.215 21.23-21.226 21.211 21.21zm.015-183.789-21.23-21.23 21.215-21.215 21.23 21.23zM271 400.973h-30v-30.028h30zm76.902-31.856-21.226-21.23 21.21-21.211 21.231 21.226zm-.015-183.789-21.211-21.215 21.226-21.23 21.215 21.215zM370.945 271v-30h30.028v30zm0 0" fill="#136b8f" opacity="1" data-original="#000000" class=""></path><path d="M437.02 74.98C388.668 26.63 324.379 0 256 0S123.332 26.629 74.98 74.98C26.63 123.332 0 187.621 0 256s26.629 132.668 74.98 181.02C123.332 485.37 187.621 512 256 512s132.668-26.629 181.02-74.98C485.37 388.668 512 324.379 512 256s-26.629-132.668-74.98-181.02zM256 467c-116.348 0-211-94.652-211-211S139.652 45 256 45s211 94.652 211 211-94.652 211-211 211zm0 0" fill="#136b8f" opacity="1" data-original="#000000" class=""></path></g></svg>