<svg xmlns="http://www.w3.org/2000/svg" version="1.1" xmlns:xlink="http://www.w3.org/1999/xlink" width="512" height="512" x="0" y="0" viewBox="0 0 1.693 1.693" style="enable-background:new 0 0 512 512" xml:space="preserve" fill-rule="evenodd" class=""><g><circle cx=".847" cy=".847" r=".847" fill="#136b8f" opacity="1" data-original="#178feb" class=""></circle><path fill="#ffffff" fill-rule="nonzero" d="M.38.437h.933c.033 0 .064.013.087.033a.11.11 0 0 1 .04.083v.587a.11.11 0 0 1-.04.084.133.133 0 0 1-.087.032H.38a.133.133 0 0 1-.088-.032.11.11 0 0 1-.039-.084V.553A.11.11 0 0 1 .294.47.133.133 0 0 1 .38.437zm.475.485.268-.236.186-.164H.401l.186.164zm.5-.327-.176.154-.116.103.116.103.176.154zm-1.016.529L.53.954.647.853.531.749.339.58zm.074.047h.884l-.174-.153L1 .908l-.116.102a.042.042 0 0 1-.056 0L.711.908l-.124.11z" opacity="1" data-original="#ffffff" class=""></path></g></svg>