<svg xmlns="http://www.w3.org/2000/svg" version="1.1" xmlns:xlink="http://www.w3.org/1999/xlink" width="512" height="512" x="0" y="0" viewBox="0 0 512 512" style="enable-background:new 0 0 512 512" xml:space="preserve" class=""><g><path d="M456.063 23.684c-5.394-5.364-12.545-8.314-20.151-8.314h-.112c-7.633.029-14.792 3.029-20.157 8.448-.117.118-.23.24-.34.365l-30.621 35.049c-8.415-8.638-19.936-13.968-32.397-14.661l-30.754-1.711c-6.873-.383-12.395-2.393-17.904-6.517l-24.66-18.458c-17.538-13.127-41.104-13.126-58.642 0l-24.66 18.458c-5.509 4.124-11.031 6.134-17.904 6.517l-30.754 1.711c-21.874 1.217-39.927 16.365-44.923 37.695l-7.025 29.99c-1.57 6.7-4.508 11.789-9.526 16.5l-22.46 21.079C47.1 164.827 43.008 188.036 52.89 207.587l13.896 27.488c3.105 6.144 4.125 11.931 3.309 18.765l-3.656 30.585c-2.6 21.752 9.183 42.161 29.321 50.785l23.161 9.919-47.357 101.718a11.613 11.613 0 0 0 1.314 11.999 11.615 11.615 0 0 0 11.247 4.387l49.749-8.692 25.374 43.666a11.61 11.61 0 0 0 10.598 5.781 11.605 11.605 0 0 0 10.026-6.717l44.727-96.071 15.521-4.691c6.587-1.993 12.464-1.991 19.053 0l15.521 4.691 44.726 96.068a11.613 11.613 0 0 0 10.564 6.733 11.61 11.61 0 0 0 10.062-5.794l25.374-43.666 49.746 8.691a11.597 11.597 0 0 0 11.25-4.386 11.61 11.61 0 0 0 1.314-11.999l-47.357-101.718 23.161-9.919c20.138-8.624 31.921-29.033 29.321-50.785l-3.656-30.585c-.816-6.834.204-12.621 3.309-18.764l13.896-27.489c9.883-19.552 5.791-42.76-10.183-57.752l-22.46-21.079c-3.059-2.872-5.34-5.91-7.015-9.344 22.119-25.436 40.913-46.734 49.448-55.348 11.077-11.18 11.018-29.295-.131-40.38zM168.889 482.952l-23.982-41.271a8 8 0 0 0-8.294-3.861l-47.022 8.216 43.368-93.149c2.12 1.886 3.999 4.078 5.712 6.698l16.859 25.779c10.788 16.493 29.795 24.667 48.772 21.526zm193.793-45.133a8.008 8.008 0 0 0-8.294 3.861l-23.983 41.271-35.413-76.065c2.683.444 5.366.67 8.027.67 16.159-.001 31.483-8.033 40.745-22.194l16.859-25.779c1.713-2.62 3.592-4.812 5.712-6.698l43.367 93.149zm40.13-297.397 22.46 21.079c10.918 10.248 13.608 25.504 6.853 38.867l-13.896 27.49c-4.489 8.88-6.097 18-4.916 27.88l3.656 30.585c1.777 14.868-5.969 28.284-19.733 34.18l-28.316 12.126c-9.147 3.919-16.241 9.871-21.686 18.197l-16.859 25.779c-8.196 12.532-22.754 17.828-37.086 13.498l-29.485-8.911c-9.525-2.877-18.785-2.877-28.31 0l-29.485 8.911c-14.333 4.33-28.891-.966-37.087-13.498l-16.859-25.779c-5.447-8.327-12.541-14.279-21.688-18.196l-28.315-12.127c-13.765-5.896-21.511-19.312-19.733-34.18l3.656-30.585c1.181-9.88-.427-19-4.916-27.881l-13.896-27.489c-6.755-13.363-4.065-28.619 6.853-38.867l22.46-21.079c7.255-6.811 11.886-14.83 14.155-24.518l7.025-29.99c3.415-14.579 15.283-24.537 30.233-25.369l30.754-1.711c9.937-.553 18.639-3.72 26.604-9.683l24.66-18.458c11.987-8.972 27.479-8.974 39.466 0l24.659 18.458c7.965 5.963 16.667 9.13 26.604 9.683l30.754 1.711c9.013.501 17.035 4.357 22.73 10.768l-34.895 39.941c-24.405-22.736-55.888-35.165-89.585-35.165-72.619 0-131.699 59.08-131.699 131.699 0 72.62 59.08 131.7 131.699 131.7s131.699-59.08 131.699-131.7c0-16.763-3.1-33.025-9.201-48.426a24896.77 24896.77 0 0 1 23.554-27.226 49.767 49.767 0 0 0 7.112 8.286zM177.5 212.333l57.126 57.126c5.402 5.402 12.586 8.377 20.228 8.377s14.826-2.975 20.228-8.377c13.233-13.234 48.911-54.381 85.032-96.174 3.471 11.103 5.232 22.659 5.232 34.503 0 63.797-51.902 115.7-115.699 115.7s-115.699-51.903-115.699-115.7S185.85 92.089 249.647 92.089c29.764 0 57.563 11.038 79.052 31.221l-74.285 85.027-36.459-36.46c-11.153-11.152-29.302-11.152-40.456.001-5.402 5.402-8.377 12.586-8.377 20.228s2.975 14.825 8.378 20.227zM444.828 52.802c-13.666 13.792-50.253 56.134-88.99 100.961-38.491 44.544-78.293 90.604-92.071 104.383a12.521 12.521 0 0 1-8.914 3.69 12.524 12.524 0 0 1-8.914-3.691l-57.126-57.126c-2.38-2.38-3.691-5.545-3.691-8.913s1.311-6.534 3.691-8.914a12.568 12.568 0 0 1 8.915-3.687c3.228 0 6.457 1.229 8.914 3.687l42.51 42.511a8.003 8.003 0 0 0 11.681-.393L390.371 77.04l.045-.051 36.752-42.067a12.433 12.433 0 0 1 8.693-3.552h.05c3.348 0 6.496 1.298 8.87 3.659 4.905 4.876 4.926 12.849.047 17.773z" fill="#000000" opacity="1" data-original="#000000" class=""></path></g></svg>