<svg xmlns="http://www.w3.org/2000/svg" version="1.1" xmlns:xlink="http://www.w3.org/1999/xlink" width="512" height="512" x="0" y="0" viewBox="0 0 512 512" style="enable-background:new 0 0 512 512" xml:space="preserve" class=""><g><path fill-rule="evenodd" d="M12.02 305.215h60v166.241h-60zm442.469-168.402a7.965 7.965 0 0 1 8.937-13.187l33.062 22.433c4.761 3.227 4.594 10.223-.14 13.283l-32.922 22.338a7.964 7.964 0 0 1-11.062-2.125 7.964 7.964 0 0 1 2.125-11.062l11.553-7.839-39.985-.017a7.975 7.975 0 0 1-6.656-3.577l-62.313-93.996-98.225 151.491a7.992 7.992 0 0 1-10.969 2.719l-99.745-60.349-100.567 97.638a7.978 7.978 0 0 1-11.125-11.437l105-101.945a7.982 7.982 0 0 1 9.681-1.115l98.404 59.524 100.79-155.422c3.126-4.812 10.18-4.835 13.338-.059l66.661 100.543h35.712zM432.02 253.738v217.719h60V253.738zm-105-116.018v333.736h60V137.72h-60zm-105 129.079h60v204.658h-60V266.799zm-105-51.485v256.143h60V215.314h-60z" clip-rule="evenodd" fill="#000000" opacity="1" data-original="#000000" class=""></path></g></svg>