<svg xmlns="http://www.w3.org/2000/svg" version="1.1" xmlns:xlink="http://www.w3.org/1999/xlink" width="512" height="512" x="0" y="0" viewBox="0 0 512 512" style="enable-background:new 0 0 512 512" xml:space="preserve" class=""><g><path d="M480.312 374.347a64.818 64.818 0 0 0-2.791-2.618V236.087c0-9.569-7.785-17.354-17.354-17.354h-77.694c.036-.44.061-.881.061-1.326V46.14c0-9.569-7.785-17.354-17.354-17.354H193.912c-4.091 0-8.079 1.467-11.257 4.152l-68.569 58.478.02.023c-3.736 3.18-6.116 7.904-6.116 13.179v114.115h-9.036c-4.086 0-8.084 1.476-11.286 4.181l-68.569 58.478.01.011c-3.73 3.186-6.106 7.912-6.106 13.19V465.86c0 9.569 7.785 17.354 17.354 17.354h171.267c3.437 0 6.636-1.02 9.333-2.756a17.233 17.233 0 0 0 9.348 2.756h171.267c5.802 0 10.935-2.872 14.087-7.258 9.014 4.733 19.095 7.251 29.567 7.251 17.034 0 33.046-6.639 45.086-18.692 12.053-12.04 18.691-28.052 18.691-45.086s-6.64-33.05-18.688-45.083zm-45.089-18.696c-9.225 0-18.143 1.963-26.299 5.661v-66.719a17.27 17.27 0 0 0-.751-5.035l53.349-45.479v117.233c-8.156-3.699-17.074-5.661-26.298-5.661zm-233.602-78.412h-76.279a1.356 1.356 0 0 1-1.354-1.354V104.618c0-.719.62-1.326 1.354-1.326h59.039v37.382a8 8 0 0 0 8 8h43.086a8 8 0 0 0 8-8v-37.382h53.114c.734 0 1.354.607 1.354 1.326v171.267c0 .747-.607 1.354-1.354 1.354zM313.193 99.623l53.34-45.512v163.297c0 .218-.349.847-1.286 1.606l-51.312 43.751V104.618c0-1.737-.264-3.412-.743-4.995zm-11.216-11.462a17.293 17.293 0 0 0-5.396-.869h-39.406l49.838-42.506h45.8l-50.835 43.375zm-101.596 15.131h27.086v29.382h-27.086zm32.138-16h-18.437l49.817-42.506h18.458zm138.949 147.441h76.353l-50.874 43.369a17.273 17.273 0 0 0-5.377-.863h-69.95l49.849-42.506zM193.01 45.134c.154-.13.477-.349.901-.349h45.338l-49.817 42.506h-45.854zM98.02 235.111c.205-.173.533-.379.933-.379h9.036v41.152c0 .457.034.906.069 1.354H48.624zm103.602 232.103H30.354c-.722 0-1.354-.633-1.354-1.354V294.593c0-.747.607-1.354 1.354-1.354h171.267c.719 0 1.326.62 1.326 1.354V465.86c0 .722-.62 1.354-1.326 1.354zm189.947 0H220.302c-.709 0-1.354-.646-1.354-1.354V294.593c0-.721.633-1.354 1.354-1.354h171.267c.747 0 1.354.607 1.354 1.354v77.135a65.099 65.099 0 0 0-2.784 2.612c-12.056 12.04-18.695 28.053-18.695 45.09s6.64 33.05 18.688 45.083a65.065 65.065 0 0 0 2.398 2.279c-.25.257-.594.424-.962.424zm77.43-14.017-.007.008c-9.018 9.029-21.01 14.001-33.769 14.002-12.759 0-24.752-4.973-33.777-14.009-9.029-9.018-14.002-21.01-14.002-33.769s4.973-24.751 14.009-33.776c9.019-9.029 21.012-14.002 33.771-14.002s24.751 4.973 33.775 14.009c9.029 9.017 14.002 21.01 14.002 33.769s-4.973 24.751-14.002 33.769zm-4.25-54.501a7.999 7.999 0 0 1-.232 11.311l-31.663 30.387a7.975 7.975 0 0 1-5.539 2.228 7.973 7.973 0 0 1-5.651-2.338l-15.846-15.817a8 8 0 0 1 11.302-11.324l10.305 10.286 26.014-24.965a8 8 0 0 1 11.311.233z" fill="#000000" opacity="1" data-original="#000000"></path></g></svg>